<svg aria-hidden="true"  width="79" height="60" viewBox="0 0 79 60" fill="none" xmlns="http://www.w3.org/2000/svg">
<rect x="0.745361" y="0.707153" width="77.5094" height="58.5857" rx="11.2929" fill="#FFAF74"/>
<path fill-rule="evenodd" clip-rule="evenodd" d="M45.7488 12.4454C46.3427 11.8515 47.3056 11.8515 47.8995 12.4454L55.2236 19.7695C55.8175 20.3634 55.8175 21.3263 55.2236 21.9202L47.8995 29.2443C47.3056 29.8382 46.3427 29.8382 45.7488 29.2443C45.1549 28.6504 45.1549 27.6875 45.7488 27.0936L50.4768 22.3656H24.8518C24.0119 22.3656 23.3311 21.6848 23.3311 20.8449C23.3311 20.005 24.0119 19.3241 24.8518 19.3241H50.4768L45.7488 14.5961C45.1549 14.0022 45.1549 13.0393 45.7488 12.4454ZM33.2513 30.7557C33.8452 31.3496 33.8452 32.3125 33.2513 32.9064L28.5233 37.6344H54.1482C54.9881 37.6344 55.669 38.3152 55.669 39.1551C55.669 39.995 54.9881 40.6759 54.1482 40.6759H28.5233L33.2513 45.4039C33.8452 45.9978 33.8452 46.9607 33.2513 47.5546C32.6574 48.1485 31.6945 48.1485 31.1006 47.5546L23.7765 40.2305C23.1826 39.6366 23.1826 38.6737 23.7765 38.0798L31.1006 30.7557C31.6945 30.1618 32.6574 30.1618 33.2513 30.7557Z" fill="#171A1E"/>
</svg>
