<svg aria-hidden="true" width="82" height="60" viewBox="0 0 82 60" fill="none" xmlns="http://www.w3.org/2000/svg">
<rect x="0.827148" y="0.707153" width="81.1715" height="58.5857" rx="11.2929" fill="#1DE698"/>
<path fill-rule="evenodd" clip-rule="evenodd" d="M35.9023 12.8643C39.8342 11.5999 44.0813 11.7261 47.9312 13.2218C48.6418 13.4978 48.994 14.2977 48.718 15.0083C48.4419 15.7189 47.642 16.0711 46.9314 15.7951C43.672 14.5288 40.0763 14.422 36.7475 15.4924C33.4187 16.5629 30.5592 18.7456 28.6489 21.6744C26.7385 24.6031 25.8934 28.0998 26.2554 31.5777C26.6174 35.0556 28.1645 38.3033 30.637 40.7759C33.1096 43.2484 36.3573 44.7955 39.8352 45.1575C43.3131 45.5195 46.8098 44.6744 49.7385 42.764C52.6673 40.8537 54.85 37.9942 55.9205 34.6654C56.9909 31.3366 56.8841 27.7409 55.6178 24.4815C55.3418 23.7709 55.694 22.971 56.4046 22.6949C57.1152 22.4189 57.9151 22.7711 58.1912 23.4817C59.6868 27.3316 59.813 31.5787 58.5486 35.5106C57.2842 39.4424 54.7061 42.8199 51.2468 45.0763C47.7874 47.3327 43.6574 48.3309 39.5494 47.9033C35.4414 47.4757 31.6054 45.6484 28.6849 42.728C25.7645 39.8075 23.9372 35.9715 23.5096 31.8635C23.082 27.7555 24.0802 23.6255 26.3366 20.1661C28.593 16.7068 31.9705 14.1287 35.9023 12.8643ZM54.058 17.3549C54.5971 17.8939 54.5971 18.7679 54.058 19.307L45.605 27.76C45.9545 28.4176 46.1525 29.168 46.1525 29.9647C46.1525 32.5628 44.0463 34.669 41.4482 34.669C38.8501 34.669 36.744 32.5628 36.744 29.9647C36.744 27.3666 38.8501 25.2604 41.4482 25.2604C42.2449 25.2604 42.9953 25.4584 43.6529 25.8079L52.1059 17.3549C52.645 16.8158 53.519 16.8158 54.058 17.3549ZM42.6482 28.4357C42.3178 28.176 41.9011 28.0211 41.4482 28.0211C40.3748 28.0211 39.5046 28.8913 39.5046 29.9647C39.5046 31.0381 40.3748 31.9083 41.4482 31.9083C42.5216 31.9083 43.3918 31.0381 43.3918 29.9647C43.3918 29.5118 43.2369 29.0951 42.9772 28.7647C42.9147 28.7203 42.855 28.67 42.7989 28.614C42.7429 28.5579 42.6926 28.4982 42.6482 28.4357Z" fill="#171A1E"/>
</svg>
