<svg aria-hidden="true" width="82" height="60" viewBox="0 0 82 60" fill="none" xmlns="http://www.w3.org/2000/svg">
<rect x="0.603027" y="0.707153" width="81.1715" height="58.5857" rx="11.2929" fill="#96BBFF"/>
<path fill-rule="evenodd" clip-rule="evenodd" d="M28.3715 15.0415C27.8036 15.0415 27.259 15.2671 26.8574 15.6687C26.4558 16.0703 26.2302 16.6149 26.2302 17.1828V20.8449C26.2302 21.6848 25.5494 22.3656 24.7095 22.3656C23.8696 22.3656 23.1887 21.6848 23.1887 20.8449V17.1828C23.1887 15.8082 23.7348 14.49 24.7067 13.518C25.6787 12.546 26.997 12 28.3715 12H32.0336C32.8735 12 33.5543 12.6809 33.5543 13.5208C33.5543 14.3607 32.8735 15.0415 32.0336 15.0415H28.3715ZM48.8231 13.5208C48.8231 12.6809 49.504 12 50.3439 12H54.0059C55.3805 12 56.6987 12.546 57.6707 13.518C58.6427 14.49 59.1887 15.8082 59.1887 17.1828V20.8449C59.1887 21.6848 58.5079 22.3656 57.668 22.3656C56.8281 22.3656 56.1472 21.6848 56.1472 20.8449V17.1828C56.1472 16.6149 55.9216 16.0703 55.52 15.6687C55.1185 15.2671 54.5738 15.0415 54.0059 15.0415H50.3439C49.504 15.0415 48.8231 14.3607 48.8231 13.5208ZM41.1887 26.0277C38.9949 26.0277 37.2164 27.8062 37.2164 30C37.2164 32.1939 38.9949 33.9723 41.1887 33.9723C42.1603 33.9723 43.0505 33.6235 43.7407 33.0442C43.8012 32.9467 43.8739 32.8545 43.9585 32.7698C44.0432 32.6851 44.1354 32.6125 44.233 32.552C44.8122 31.8617 45.161 30.9716 45.161 30C45.161 27.8062 43.3826 26.0277 41.1887 26.0277ZM47.1063 33.7669C47.8004 32.6787 48.2026 31.3863 48.2026 30C48.2026 26.1264 45.0624 22.9862 41.1887 22.9862C37.3151 22.9862 34.1749 26.1264 34.1749 30C34.1749 33.8736 37.3151 37.0138 41.1887 37.0138C42.5751 37.0138 43.8674 36.6116 44.9556 35.9175L47.4375 38.3994C48.0314 38.9933 48.9943 38.9933 49.5882 38.3994C50.1821 37.8056 50.1821 36.8427 49.5882 36.2488L47.1063 33.7669ZM24.7095 37.6344C25.5494 37.6344 26.2302 38.3152 26.2302 39.1551V42.8172C26.2302 43.3851 26.4558 43.9297 26.8574 44.3313C27.259 44.7329 27.8036 44.9585 28.3715 44.9585H32.0336C32.8735 44.9585 33.5543 45.6393 33.5543 46.4792C33.5543 47.3191 32.8735 48 32.0336 48H28.3715C26.997 48 25.6787 47.454 24.7067 46.482C23.7348 45.51 23.1887 44.1918 23.1887 42.8172V39.1551C23.1887 38.3152 23.8696 37.6344 24.7095 37.6344ZM57.668 37.6344C58.5079 37.6344 59.1887 38.3152 59.1887 39.1551V42.8172C59.1887 44.1918 58.6427 45.51 57.6707 46.482C56.6987 47.454 55.3805 48 54.0059 48H50.3439C49.504 48 48.8231 47.3191 48.8231 46.4792C48.8231 45.6393 49.504 44.9585 50.3439 44.9585H54.0059C54.5738 44.9585 55.1185 44.7329 55.52 44.3313C55.9216 43.9297 56.1472 43.3851 56.1472 42.8172V39.1551C56.1472 38.3152 56.8281 37.6344 57.668 37.6344Z" fill="#171A1E"/>
</svg>
