<svg aria-hidden="true" width="82" height="60" viewBox="0 0 82 60" fill="none" xmlns="http://www.w3.org/2000/svg">
<rect x="0.225464" y="0.707153" width="81.1715" height="58.5857" rx="11.2929" fill="#FF8692"/>
<path fill-rule="evenodd" clip-rule="evenodd" d="M27.5154 14.7608C27 14.7608 26.5056 14.9655 26.1411 15.33C25.7766 15.6945 25.5719 16.1889 25.5719 16.7043V23.3522C25.5719 23.8677 25.7766 24.362 26.1411 24.7265C26.5056 25.091 27 25.2958 27.5154 25.2958H30.8394C31.6017 25.2958 32.2197 25.9138 32.2197 26.6761C32.2197 27.4385 31.6017 28.0565 30.8394 28.0565H27.5154C26.2678 28.0565 25.0712 27.5608 24.189 26.6786C23.3068 25.7964 22.8112 24.5999 22.8112 23.3522V16.7043C22.8112 15.4567 23.3068 14.2601 24.189 13.3779C25.0712 12.4957 26.2678 12.0001 27.5154 12.0001H54.1069C55.3545 12.0001 56.5511 12.4957 57.4333 13.3779C58.3155 14.2601 58.8112 15.4567 58.8112 16.7043V23.3522C58.8112 24.5999 58.3155 25.7964 57.4333 26.6786C56.5511 27.5608 55.3545 28.0565 54.1069 28.0565H50.7829C50.0206 28.0565 49.4026 27.4385 49.4026 26.6761C49.4026 25.9138 50.0206 25.2958 50.7829 25.2958H54.1069C54.6224 25.2958 55.1167 25.091 55.4812 24.7265C55.8457 24.362 56.0505 23.8677 56.0505 23.3522V16.7043C56.0505 16.1889 55.8457 15.6945 55.4812 15.33C55.1167 14.9655 54.6224 14.7608 54.1069 14.7608H27.5154ZM43.2388 18.8798C43.8731 19.3026 44.0445 20.1596 43.6216 20.7939L38.4045 28.6197H45.7971C46.3061 28.6197 46.7739 28.8999 47.0141 29.3487C47.2543 29.7976 47.2279 30.3422 46.9456 30.7657L40.2977 40.7375C39.8748 41.3718 39.0178 41.5432 38.3835 41.1204C37.7492 40.6975 37.5778 39.8405 38.0007 39.2062L43.2178 31.3804H35.8253C35.3162 31.3804 34.8485 31.1002 34.6082 30.6514C34.368 30.2026 34.3944 29.658 34.6767 29.2344L41.3246 19.2626C41.7475 18.6283 42.6045 18.4569 43.2388 18.8798ZM29.459 20.0283C29.459 19.2659 30.077 18.6479 30.8394 18.6479H30.856C31.6183 18.6479 32.2363 19.2659 32.2363 20.0283C32.2363 20.7906 31.6183 21.4086 30.856 21.4086H30.8394C30.077 21.4086 29.459 20.7906 29.459 20.0283ZM24.189 33.3215C25.0712 32.4393 26.2678 31.9436 27.5154 31.9436H30.8394C31.6017 31.9436 32.2197 32.5616 32.2197 33.324C32.2197 34.0863 31.6017 34.7043 30.8394 34.7043H27.5154C27 34.7043 26.5056 34.9091 26.1411 35.2736C25.7766 35.6381 25.5719 36.1325 25.5719 36.6479V43.2958C25.5719 43.8113 25.7766 44.3056 26.1411 44.6701C26.5056 45.0346 27 45.2394 27.5154 45.2394H54.1069C54.6224 45.2394 55.1167 45.0346 55.4812 44.6701C55.8457 44.3056 56.0505 43.8113 56.0505 43.2958L56.0505 36.6479C56.0505 36.1325 55.8457 35.6381 55.4812 35.2736C55.1167 34.9091 54.6224 34.7043 54.1069 34.7043H50.7829C50.0206 34.7043 49.4026 34.0863 49.4026 33.324C49.4026 32.5616 50.0206 31.9436 50.7829 31.9436H54.1069C55.3545 31.9436 56.5511 32.4393 57.4333 33.3215C58.3155 34.2037 58.8112 35.4003 58.8112 36.6479L58.8112 43.2958C58.8112 44.5434 58.3155 45.74 57.4333 46.6222C56.5511 47.5044 55.3545 48.0001 54.1069 48.0001H27.5154C26.2678 48.0001 25.0712 47.5044 24.189 46.6222C23.3068 45.74 22.8112 44.5434 22.8112 43.2958V36.6479C22.8112 35.4003 23.3068 34.2037 24.189 33.3215ZM29.459 39.9719C29.459 39.2095 30.077 38.5915 30.8394 38.5915H30.856C31.6183 38.5915 32.2363 39.2095 32.2363 39.9719C32.2363 40.7342 31.6183 41.3522 30.856 41.3522H30.8394C30.077 41.3522 29.459 40.7342 29.459 39.9719Z" fill="#171A1E"/>
</svg>
